<svg xmlns="http://www.w3.org/2000/svg" viewBox="0 0 640 480"><rect width="640" height="480" fill="#d7eaf3"/><circle cx="435" cy="150" r="68" fill="#e8b94b"/><g stroke="#e8b94b" stroke-width="12" stroke-linecap="round"><path d="M435 55V30M435 245v25M340 150h-25M530 150h25M368 83l-18-18M502 217l18 18M502 83l18-18"/></g><path d="M70 425q100-100 240-20t330-55v130H0z" fill="#a9c3b5"/><path d="M125 256c-38-72 38-143 97-109 49-82 153-39 151 32 65-3 88 82 24 106H145c-29 0-46-16-20-29z" fill="#fffbfe"/><g stroke="#7b9eb2" stroke-width="10" stroke-linecap="round"><path d="M193 325l-13 27M249 325l-13 27M305 325l-13 27"/></g><path d="M405 307h123q38 0 38-28t-30-24M427 346h97q39 0 39 25t-29 24" fill="none" stroke="#7b9eb2" stroke-width="9" stroke-linecap="round"/></svg>
